<svg width="16" height="16" viewBox="0 0 16 16" fill="none" xmlns="http://www.w3.org/2000/svg">
<path d="M0.862683 0H14.2517C14.7055 0 15.1144 0.408831 15.1144 0.862683V14.2517C15.1144 14.7055 14.7055 15.1144 14.2517 15.1144H0.862683C0.40883 15.1144 0 14.7055 0 14.2517V0.862683C0 0.408831 0.40883 0 0.862683 0ZM10.7334 8.48668H12.8212L12.9119 6.48973H10.7334V5.01489C10.7334 4.44776 10.8467 4.1297 11.5729 4.1297H12.8437L12.8894 2.26854C12.8894 2.26854 12.3223 2.17777 11.5053 2.17777C9.50839 2.17777 8.6232 3.42604 8.6232 4.76509V6.48973H7.14836V8.48668H8.6232V14.0237H10.7334V8.48668Z" fill="#21231E"/>
</svg>
