<svg width="300" height="19" viewBox="0 0 300 19" fill="none" xmlns="http://www.w3.org/2000/svg">
<path d="M22.905 6.91697C23.1731 6.42095 23.3656 5.60579 22.7593 4.54111C22.153 3.47643 21.3603 3.23772 20.802 3.22518C20.786 3.22475 20.77 3.22475 20.754 3.22475C19.5237 3.22475 18.1767 4.28813 17.0471 5.48774C17.5133 3.87558 17.7481 2.13715 17.1025 1.05992C16.8127 0.57645 16.2125 0 14.9999 0C13.7873 0 13.1871 0.57645 12.8969 1.05992C12.2513 2.13715 12.4861 3.87558 12.9523 5.48774C11.8227 4.28813 10.4752 3.22475 9.24536 3.22475C9.22936 3.22475 9.21336 3.22475 9.19736 3.22518C8.63907 3.23772 7.8464 3.47643 7.24011 4.54111C6.63382 5.60579 6.82626 6.42052 7.09438 6.91697C7.69159 8.0223 9.29423 8.68567 10.9047 9.08222C9.29423 9.47878 7.69202 10.1421 7.09438 11.2475C6.82626 11.7439 6.63382 12.5587 7.24011 13.6233C7.8464 14.688 8.63907 14.9267 9.19736 14.9393C9.21336 14.9397 9.22936 14.9397 9.24536 14.9397C10.4757 14.9397 11.8227 13.8763 12.9523 12.6767C12.4861 14.2889 12.2513 16.0273 12.8969 17.1045C13.1871 17.588 13.7869 18.1644 14.9999 18.1644C16.2125 18.1644 16.8127 17.588 17.1025 17.1045C17.7481 16.0273 17.5133 14.2889 17.0471 12.6767C18.1767 13.8763 19.5242 14.9397 20.754 14.9397C20.77 14.9397 20.786 14.9397 20.802 14.9393C21.3603 14.9267 22.153 14.688 22.7593 13.6233C23.3656 12.5587 23.1731 11.7439 22.905 11.2475C22.3074 10.1421 20.7052 9.47878 19.0947 9.08222C20.7052 8.68524 22.3074 8.0223 22.905 6.91697ZM13.8695 1.65886C13.9997 1.44177 14.2583 1.15333 14.9999 1.15333C15.7416 1.15333 16.0002 1.44177 16.1303 1.65886C16.8036 2.78149 15.9249 5.64471 14.9999 7.74943C14.0745 5.64428 13.1962 2.78149 13.8695 1.65886ZM8.09246 6.36301C7.97181 6.1403 7.85462 5.76883 8.22522 5.11799C8.59583 4.46716 8.97206 4.38413 9.22244 4.37851C9.23109 4.37808 9.23974 4.37808 9.24839 4.37808C10.5453 4.37808 12.5345 6.56409 13.8613 8.41626C11.6013 8.17668 8.71605 7.51677 8.09246 6.36301ZM9.22244 13.7864C8.97206 13.7803 8.59583 13.6977 8.22522 13.0469C7.85462 12.3961 7.97181 12.0246 8.09203 11.8019C8.71475 10.6494 11.6005 9.98906 13.8617 9.74862C12.5268 11.6129 10.5181 13.8184 9.22244 13.7864ZM16.1299 16.5056C15.9997 16.7227 15.7411 17.0111 14.9995 17.0111C14.2578 17.0111 13.9992 16.7227 13.8691 16.5056C13.1958 15.383 14.0741 12.5197 14.9995 10.415C15.9249 12.5202 16.8032 15.383 16.1299 16.5056ZM21.9069 11.8014C22.0276 12.0242 22.1448 12.3956 21.7742 13.0465C21.4036 13.6973 21.0278 13.7803 20.777 13.7859C20.7683 13.7864 20.7597 13.7864 20.751 13.7864C19.4541 13.7864 17.4649 11.6004 16.1381 9.74819C18.3985 9.98777 21.2834 10.6477 21.9069 11.8014ZM21.9074 6.36257C21.2846 7.51504 18.3989 8.17538 16.1377 8.41582C17.464 6.56366 19.4524 4.37808 20.7506 4.37808C20.7592 4.37808 20.7679 4.37808 20.7765 4.37808C21.0269 4.3837 21.4031 4.46673 21.7737 5.11756C22.1448 5.76839 22.0276 6.13986 21.9074 6.36257Z" fill="#21231E"/>
<path d="M27.0291 12.0934C28.6672 12.0934 29.9995 10.7424 29.9995 9.08229C29.9995 7.42213 28.6667 6.07117 27.0291 6.07117C25.391 6.07117 24.0586 7.42213 24.0586 9.08229C24.0586 10.7424 25.391 12.0934 27.0291 12.0934ZM27.0291 7.22407C28.0397 7.22407 28.8622 8.05739 28.8622 9.08185C28.8622 10.1063 28.0397 10.9396 27.0291 10.9396C26.0184 10.9396 25.1959 10.1059 25.1959 9.08185C25.1959 8.05782 26.018 7.22407 27.0291 7.22407Z" fill="#21231E"/>
<path d="M2.97047 12.0934C4.60857 12.0934 5.94094 10.7424 5.94094 9.08229C5.94094 7.42213 4.60814 6.07117 2.97047 6.07117C1.3328 6.07117 0 7.42213 0 9.08229C0 10.7424 1.33236 12.0934 2.97047 12.0934ZM2.97047 7.22407C3.98109 7.22407 4.80361 8.05739 4.80361 9.08185C4.80361 10.1063 3.98109 10.9396 2.97047 10.9396C1.95984 10.9396 1.13733 10.1059 1.13733 9.08185C1.13733 8.05782 1.95941 7.22407 2.97047 7.22407Z" fill="#21231E"/>
<path d="M52.905 6.91697C53.1731 6.42095 53.3655 5.60579 52.7592 4.54111C52.1529 3.47643 51.3603 3.23772 50.802 3.22518C50.786 3.22475 50.77 3.22475 50.754 3.22475C49.5237 3.22475 48.1766 4.28813 47.0471 5.48774C47.5132 3.87558 47.7481 2.13715 47.1024 1.05992C46.8122 0.57645 46.2124 0 44.9994 0C43.7869 0 43.1866 0.57645 42.8964 1.05992C42.2508 2.13715 42.4856 3.87558 42.9518 5.48774C41.8223 4.28813 40.4747 3.22475 39.2449 3.22475C39.2289 3.22475 39.2129 3.22475 39.1969 3.22518C38.6386 3.23772 37.8459 3.47643 37.2396 4.54111C36.6333 5.60579 36.8258 6.42052 37.0939 6.91697C37.6915 8.0223 39.2937 8.68567 40.9042 9.08222C39.2937 9.47878 37.6915 10.1421 37.0939 11.2475C36.8258 11.7439 36.6333 12.5587 37.2396 13.6233C37.8459 14.688 38.6386 14.9267 39.1969 14.9393C39.2129 14.9397 39.2289 14.9397 39.2449 14.9397C40.4752 14.9397 41.8223 13.8763 42.9518 12.6767C42.4856 14.2889 42.2508 16.0273 42.8964 17.1045C43.1866 17.588 43.7864 18.1644 44.9994 18.1644C46.212 18.1644 46.8122 17.588 47.1024 17.1045C47.7481 16.0273 47.5132 14.2889 47.0471 12.6767C48.1766 13.8763 49.5237 14.9397 50.754 14.9397C50.77 14.9397 50.786 14.9397 50.802 14.9393C51.3603 14.9267 52.1529 14.688 52.7592 13.6233C53.3655 12.5587 53.1731 11.7439 52.905 11.2475C52.3073 10.1421 50.7051 9.47878 49.0947 9.08222C50.7051 8.68524 52.3073 8.0223 52.905 6.91697ZM43.8694 1.65886C43.9996 1.44177 44.2582 1.15333 44.9999 1.15333C45.7411 1.15333 46.0001 1.44177 46.1303 1.65886C46.8036 2.78149 45.9253 5.64471 44.9999 7.74943C44.0744 5.64428 43.1961 2.78149 43.8694 1.65886ZM38.0924 6.36301C37.9718 6.1403 37.8546 5.76883 38.2252 5.11799C38.5958 4.46716 38.972 4.38413 39.2224 4.37851C39.231 4.37808 39.2397 4.37808 39.2483 4.37808C40.5452 4.37808 42.5345 6.56409 43.8612 8.41626C41.6008 8.17668 38.716 7.51677 38.0924 6.36301ZM39.2224 13.7864C38.972 13.7803 38.5958 13.6977 38.2252 13.0469C37.8546 12.3961 37.9718 12.0246 38.092 11.8019C38.7147 10.6494 41.6004 9.98906 43.8617 9.74862C42.5267 11.6129 40.518 13.8184 39.2224 13.7864ZM46.1298 16.5056C45.9997 16.7227 45.7411 17.0111 44.9994 17.0111C44.2582 17.0111 43.9992 16.7227 43.869 16.5056C43.1957 15.383 44.074 12.5197 44.9994 10.415C45.9249 12.5202 46.8032 15.383 46.1298 16.5056ZM51.9069 11.8014C52.0275 12.0242 52.1447 12.3956 51.7741 13.0465C51.4035 13.6973 51.0273 13.7803 50.7769 13.7859C50.7683 13.7864 50.7596 13.7864 50.751 13.7864C49.4541 13.7864 47.4648 11.6004 46.1381 9.74819C48.3985 9.98777 51.2833 10.6477 51.9069 11.8014ZM51.9073 6.36257C51.2846 7.51504 48.3989 8.17538 46.1376 8.41582C47.4639 6.56366 49.4523 4.37808 50.751 4.37808C50.7596 4.37808 50.7683 4.37808 50.7769 4.37808C51.0273 4.3837 51.4031 4.46673 51.7741 5.11756C52.1447 5.76839 52.0275 6.13986 51.9073 6.36257Z" fill="#21231E"/>
<path d="M57.0288 12.0934C58.6669 12.0934 59.9997 10.7424 59.9997 9.08229C59.9997 7.42213 58.6669 6.07117 57.0288 6.07117C55.3907 6.07117 54.0583 7.42213 54.0583 9.08229C54.0583 10.7424 55.3911 12.0934 57.0288 12.0934ZM57.0288 7.22407C58.0394 7.22407 58.862 8.05739 58.862 9.08185C58.862 10.1063 58.0394 10.9396 57.0288 10.9396C56.0182 10.9396 55.1957 10.1059 55.1957 9.08185C55.1961 8.05782 56.0182 7.22407 57.0288 7.22407Z" fill="#21231E"/>
<path d="M32.9705 12.0934C34.6086 12.0934 35.9414 10.7424 35.9414 9.08229C35.9414 7.42213 34.6086 6.07117 32.9705 6.07117C31.3324 6.07117 30 7.42213 30 9.08229C30 10.7424 31.3324 12.0934 32.9705 12.0934ZM32.9705 7.22407C33.9811 7.22407 34.8036 8.05739 34.8036 9.08185C34.8036 10.1063 33.9811 10.9396 32.9705 10.9396C31.9598 10.9396 31.1373 10.1059 31.1373 9.08185C31.1373 8.05782 31.9594 7.22407 32.9705 7.22407Z" fill="#21231E"/>
<path d="M82.905 6.91697C83.1731 6.42095 83.3656 5.60579 82.7593 4.54111C82.153 3.47643 81.3603 3.23772 80.802 3.22518C80.786 3.22475 80.77 3.22475 80.754 3.22475C79.5237 3.22475 78.1767 4.28813 77.0471 5.48774C77.5133 3.87558 77.7481 2.13715 77.1025 1.05992C76.8123 0.57645 76.2125 0 74.9995 0C73.7869 0 73.1867 0.57645 72.8969 1.05992C72.2513 2.13715 72.4861 3.87558 72.9523 5.48774C71.8227 4.28813 70.4752 3.22475 69.2454 3.22475C69.2294 3.22475 69.2134 3.22475 69.1974 3.22518C68.6391 3.23772 67.8464 3.47643 67.2401 4.54111C66.6338 5.60579 66.8263 6.42052 67.0944 6.91697C67.692 8.0223 69.2942 8.68567 70.9047 9.08222C69.2942 9.47878 67.692 10.1421 67.0944 11.2475C66.8263 11.7439 66.6338 12.5587 67.2401 13.6233C67.8464 14.688 68.6391 14.9267 69.1974 14.9393C69.2134 14.9397 69.2294 14.9397 69.2454 14.9397C70.4757 14.9397 71.8227 13.8763 72.9523 12.6767C72.4861 14.2889 72.2513 16.0273 72.8969 17.1045C73.1867 17.588 73.7869 18.1644 74.9995 18.1644C76.2121 18.1644 76.8123 17.588 77.1025 17.1045C77.7481 16.0273 77.5133 14.2889 77.0471 12.6767C78.1767 13.8763 79.5237 14.9397 80.754 14.9397C80.77 14.9397 80.786 14.9397 80.802 14.9393C81.3603 14.9267 82.153 14.688 82.7593 13.6233C83.3656 12.5587 83.1731 11.7439 82.905 11.2475C82.3074 10.1421 80.7052 9.47878 79.0947 9.08222C80.7052 8.68524 82.3074 8.0223 82.905 6.91697ZM73.8695 1.65886C73.9997 1.44177 74.2583 1.15333 74.9999 1.15333C75.7416 1.15333 76.0002 1.44177 76.1303 1.65886C76.8037 2.78149 75.9254 5.64471 74.9999 7.74943C74.0745 5.64428 73.1962 2.78149 73.8695 1.65886ZM68.0925 6.36301C67.9718 6.1403 67.8546 5.76883 68.2257 5.11799C68.5963 4.46716 68.9725 4.38413 69.2229 4.37851C69.2315 4.37808 69.2402 4.37808 69.2488 4.37808C70.5457 4.37808 72.535 6.56409 73.8617 8.41626C71.6009 8.17668 68.7161 7.51677 68.0925 6.36301ZM69.2224 13.7864C68.9721 13.7803 68.5958 13.6977 68.2252 13.0469C67.8546 12.3961 67.9718 12.0246 68.092 11.8019C68.7148 10.6494 71.6005 9.98906 73.8617 9.74862C72.5268 11.6129 70.518 13.8184 69.2224 13.7864ZM76.1299 16.5056C75.9997 16.7227 75.7411 17.0111 74.9995 17.0111C74.2583 17.0111 73.9992 16.7227 73.8691 16.5056C73.1958 15.383 74.0745 12.5197 74.9995 10.415C75.9249 12.5202 76.8032 15.383 76.1299 16.5056ZM81.9069 11.8014C82.0276 12.0242 82.1448 12.3956 81.7742 13.0465C81.4036 13.6973 81.0273 13.7803 80.777 13.7859C80.7683 13.7864 80.7597 13.7864 80.751 13.7864C79.4541 13.7864 77.4649 11.6004 76.1381 9.74819C78.3985 9.98777 81.2834 10.6477 81.9069 11.8014ZM81.9074 6.36257C81.2847 7.51504 78.3989 8.17538 76.1377 8.41582C77.464 6.56366 79.4524 4.37808 80.751 4.37808C80.7597 4.37808 80.7683 4.37808 80.777 4.37808C81.0273 4.3837 81.4036 4.46673 81.7742 5.11756C82.1448 5.76839 82.0276 6.13986 81.9074 6.36257Z" fill="#21231E"/>
<path d="M87.0288 12.0934C88.6669 12.0934 89.9997 10.7424 89.9997 9.08229C89.9997 7.42213 88.6669 6.07117 87.0288 6.07117C85.3907 6.07117 84.0583 7.42213 84.0583 9.08229C84.0583 10.7424 85.3911 12.0934 87.0288 12.0934ZM87.0288 7.22407C88.0394 7.22407 88.862 8.05739 88.862 9.08185C88.862 10.1063 88.0394 10.9396 87.0288 10.9396C86.0182 10.9396 85.1957 10.1059 85.1957 9.08185C85.1961 8.05782 86.0182 7.22407 87.0288 7.22407Z" fill="#21231E"/>
<path d="M62.9704 12.0934C64.6085 12.0934 65.9413 10.7424 65.9413 9.08229C65.9413 7.42213 64.6085 6.07117 62.9704 6.07117C61.3323 6.07117 59.9995 7.42213 59.9995 9.08229C59.9995 10.7424 61.3323 12.0934 62.9704 12.0934ZM62.9704 7.22407C63.981 7.22407 64.8036 8.05739 64.8036 9.08185C64.8036 10.1063 63.981 10.9396 62.9704 10.9396C61.9598 10.9396 61.1373 10.1059 61.1373 9.08185C61.1373 8.05782 61.9594 7.22407 62.9704 7.22407Z" fill="#21231E"/>
<path d="M112.905 6.91697C113.173 6.42095 113.365 5.60579 112.759 4.54111C112.153 3.47643 111.36 3.23772 110.802 3.22518C110.786 3.22475 110.77 3.22475 110.754 3.22475C109.523 3.22475 108.176 4.28813 107.047 5.48774C107.513 3.87558 107.748 2.13715 107.102 1.05992C106.812 0.57645 106.212 0 104.999 0C103.787 0 103.186 0.57645 102.897 1.05992C102.251 2.13715 102.486 3.87558 102.952 5.48774C101.822 4.28813 100.475 3.22475 99.2451 3.22475C99.2291 3.22475 99.2131 3.22475 99.1971 3.22518C98.6388 3.23772 97.8462 3.47643 97.2399 4.54111C96.6336 5.60579 96.826 6.42052 97.0941 6.91697C97.6918 8.0223 99.294 8.68567 100.904 9.08222C99.2936 9.47878 97.6913 10.1421 97.0941 11.2475C96.826 11.7439 96.6336 12.5587 97.2399 13.6233C97.8462 14.688 98.6388 14.9267 99.1971 14.9393C99.2131 14.9397 99.2291 14.9397 99.2451 14.9397C100.475 14.9397 101.822 13.8763 102.952 12.6767C102.486 14.2889 102.251 16.0273 102.897 17.1045C103.187 17.588 103.787 18.1644 104.999 18.1644C106.212 18.1644 106.812 17.588 107.102 17.1045C107.748 16.0273 107.513 14.2889 107.047 12.6767C108.176 13.8763 109.523 14.9397 110.754 14.9397C110.77 14.9397 110.786 14.9397 110.802 14.9393C111.36 14.9267 112.153 14.688 112.759 13.6233C113.365 12.5587 113.173 11.7439 112.905 11.2475C112.308 10.1421 110.705 9.47878 109.095 9.08222C110.705 8.68524 112.307 8.0223 112.905 6.91697ZM103.869 1.65886C103.999 1.44177 104.258 1.15333 105 1.15333C105.741 1.15333 106 1.44177 106.13 1.65886C106.803 2.78149 105.925 5.64471 105 7.74943C104.074 5.64428 103.196 2.78149 103.869 1.65886ZM98.0922 6.36301C97.9716 6.1403 97.8544 5.76883 98.225 5.11799C98.5956 4.46716 98.9714 4.38413 99.2222 4.37851C99.2308 4.37808 99.2395 4.37808 99.2481 4.37808C100.545 4.37808 102.534 6.56409 103.861 8.41626C101.601 8.17668 98.7158 7.51677 98.0922 6.36301ZM99.2222 13.7864C98.9718 13.7803 98.5956 13.6977 98.225 13.0469C97.8544 12.3961 97.9716 12.0246 98.0918 11.8019C98.7145 10.6494 101.6 9.98906 103.861 9.74862C102.527 11.6129 100.518 13.8184 99.2222 13.7864ZM106.13 16.5056C105.999 16.7227 105.741 17.0111 104.999 17.0111C104.258 17.0111 103.999 16.7227 103.869 16.5056C103.196 15.383 104.074 12.5197 104.999 10.415C105.925 12.5202 106.803 15.383 106.13 16.5056ZM111.907 11.8014C112.027 12.0242 112.145 12.3956 111.774 13.0465C111.403 13.6973 111.027 13.7803 110.777 13.7859C110.768 13.7864 110.759 13.7864 110.751 13.7864C109.454 13.7864 107.465 11.6004 106.138 9.74819C108.398 9.98777 111.283 10.6477 111.907 11.8014ZM111.907 6.36257C111.284 7.51504 108.399 8.17538 106.137 8.41582C107.464 6.56366 109.452 4.37808 110.751 4.37808C110.759 4.37808 110.768 4.37808 110.777 4.37808C111.027 4.3837 111.403 4.46673 111.774 5.11756C112.145 5.76839 112.027 6.13986 111.907 6.36257Z" fill="#21231E"/>
<path d="M117.029 12.0934C118.667 12.0934 120 10.7424 120 9.08229C120 7.42213 118.667 6.07117 117.029 6.07117C115.391 6.07117 114.058 7.42213 114.058 9.08229C114.058 10.7424 115.391 12.0934 117.029 12.0934ZM117.029 7.22407C118.039 7.22407 118.862 8.05739 118.862 9.08185C118.862 10.1063 118.039 10.9396 117.029 10.9396C116.018 10.9396 115.196 10.1059 115.196 9.08185C115.196 8.05782 116.018 7.22407 117.029 7.22407Z" fill="#21231E"/>
<path d="M92.9704 12.0934C94.6085 12.0934 95.9413 10.7424 95.9413 9.08229C95.9413 7.42213 94.6085 6.07117 92.9704 6.07117C91.3323 6.07117 89.9995 7.42213 89.9995 9.08229C89.9995 10.7424 91.3323 12.0934 92.9704 12.0934ZM92.9704 7.22407C93.981 7.22407 94.8036 8.05739 94.8036 9.08185C94.8036 10.1063 93.981 10.9396 92.9704 10.9396C91.9598 10.9396 91.1373 10.1059 91.1373 9.08185C91.1373 8.05782 91.9594 7.22407 92.9704 7.22407Z" fill="#21231E"/>
<path d="M142.905 6.91697C143.173 6.42095 143.366 5.60579 142.76 4.54111C142.153 3.47643 141.361 3.23772 140.802 3.22518C140.786 3.22475 140.77 3.22475 140.754 3.22475C139.524 3.22475 138.177 4.28813 137.047 5.48774C137.514 3.87558 137.748 2.13715 137.103 1.05992C136.813 0.57645 136.213 0 135 0C133.787 0 133.187 0.57645 132.897 1.05992C132.252 2.13715 132.486 3.87558 132.953 5.48774C131.823 4.28813 130.475 3.22475 129.246 3.22475C129.23 3.22475 129.214 3.22475 129.198 3.22518C128.639 3.23772 127.847 3.47643 127.24 4.54111C126.634 5.60579 126.827 6.42052 127.095 6.91697C127.692 8.0223 129.294 8.68567 130.905 9.08222C129.294 9.47878 127.692 10.1421 127.095 11.2475C126.827 11.7439 126.634 12.5587 127.24 13.6233C127.847 14.688 128.639 14.9267 129.198 14.9393C129.214 14.9397 129.23 14.9397 129.246 14.9397C130.476 14.9397 131.823 13.8763 132.953 12.6767C132.486 14.2889 132.252 16.0273 132.897 17.1045C133.187 17.588 133.787 18.1644 135 18.1644C136.212 18.1644 136.813 17.588 137.103 17.1045C137.748 16.0273 137.514 14.2889 137.047 12.6767C138.177 13.8763 139.524 14.9397 140.754 14.9397C140.77 14.9397 140.786 14.9397 140.802 14.9393C141.361 14.9267 142.153 14.688 142.76 13.6233C143.366 12.5587 143.173 11.7439 142.905 11.2475C142.308 10.1421 140.705 9.47878 139.095 9.08222C140.705 8.68524 142.308 8.0223 142.905 6.91697ZM133.87 1.65886C134 1.44177 134.259 1.15333 135 1.15333C135.742 1.15333 136 1.44177 136.131 1.65886C136.804 2.78149 135.926 5.64471 135 7.74943C134.075 5.64428 133.196 2.78149 133.87 1.65886ZM128.093 6.36301C127.972 6.1403 127.855 5.76883 128.226 5.11799C128.597 4.46716 128.972 4.38413 129.223 4.37851C129.232 4.37808 129.24 4.37808 129.249 4.37808C130.546 4.37808 132.535 6.56409 133.862 8.41626C131.601 8.17668 128.716 7.51677 128.093 6.36301ZM129.223 13.7864C128.972 13.7803 128.596 13.6977 128.225 13.0469C127.855 12.3961 127.972 12.0246 128.092 11.8019C128.715 10.6494 131.601 9.98906 133.862 9.74862C132.527 11.6129 130.518 13.8184 129.223 13.7864ZM136.13 16.5056C136 16.7227 135.741 17.0111 135 17.0111C134.259 17.0111 133.999 16.7227 133.869 16.5056C133.196 15.383 134.074 12.5197 135 10.415C135.925 12.5202 136.803 15.383 136.13 16.5056ZM141.907 11.8014C142.028 12.0242 142.145 12.3956 141.774 13.0465C141.404 13.6973 141.028 13.7803 140.777 13.7859C140.769 13.7864 140.76 13.7864 140.751 13.7864C139.454 13.7864 137.465 11.6004 136.138 9.74819C138.399 9.98777 141.284 10.6477 141.907 11.8014ZM141.908 6.36257C141.285 7.51504 138.399 8.17538 136.138 8.41582C137.464 6.56366 139.453 4.37808 140.751 4.37808C140.76 4.37808 140.769 4.37808 140.777 4.37808C141.028 4.3837 141.404 4.46673 141.774 5.11756C142.145 5.76839 142.028 6.13986 141.908 6.36257Z" fill="#21231E"/>
<path d="M147.029 12.0934C148.667 12.0934 150 10.7424 150 9.08229C150 7.42213 148.667 6.07117 147.029 6.07117C145.391 6.07117 144.058 7.42213 144.058 9.08229C144.058 10.7424 145.391 12.0934 147.029 12.0934ZM147.029 7.22407C148.04 7.22407 148.862 8.05739 148.862 9.08185C148.862 10.1063 148.04 10.9396 147.029 10.9396C146.018 10.9396 145.196 10.1059 145.196 9.08185C145.196 8.05782 146.018 7.22407 147.029 7.22407Z" fill="#21231E"/>
<path d="M122.97 12.0934C124.609 12.0934 125.941 10.7424 125.941 9.08229C125.941 7.42213 124.609 6.07117 122.97 6.07117C121.332 6.07117 120 7.42213 120 9.08229C120 10.7424 121.333 12.0934 122.97 12.0934ZM122.97 7.22407C123.981 7.22407 124.804 8.05739 124.804 9.08185C124.804 10.1063 123.981 10.9396 122.97 10.9396C121.96 10.9396 121.137 10.1059 121.137 9.08185C121.138 8.05782 121.96 7.22407 122.97 7.22407Z" fill="#21231E"/>
<path d="M172.905 6.91697C173.173 6.42095 173.366 5.60579 172.76 4.54111C172.153 3.47643 171.361 3.23772 170.803 3.22518C170.787 3.22475 170.771 3.22475 170.755 3.22475C169.524 3.22475 168.177 4.28813 167.048 5.48774C167.514 3.87558 167.749 2.13715 167.103 1.05992C166.813 0.57645 166.213 0 165 0C163.788 0 163.187 0.57645 162.897 1.05992C162.252 2.13715 162.486 3.87558 162.953 5.48774C161.823 4.28813 160.476 3.22475 159.246 3.22475C159.23 3.22475 159.214 3.22475 159.198 3.22518C158.639 3.23772 157.847 3.47643 157.241 4.54111C156.635 5.60579 156.827 6.42052 157.095 6.91697C157.692 8.0223 159.295 8.68567 160.905 9.08222C159.295 9.47878 157.692 10.1421 157.095 11.2475C156.827 11.7439 156.635 12.5587 157.241 13.6233C157.847 14.688 158.639 14.9267 159.198 14.9393C159.214 14.9397 159.23 14.9397 159.246 14.9397C160.476 14.9397 161.823 13.8763 162.953 12.6767C162.486 14.2889 162.252 16.0273 162.897 17.1045C163.187 17.588 163.787 18.1644 165 18.1644C166.213 18.1644 166.813 17.588 167.103 17.1045C167.749 16.0273 167.514 14.2889 167.048 12.6767C168.177 13.8763 169.525 14.9397 170.755 14.9397C170.771 14.9397 170.787 14.9397 170.803 14.9393C171.361 14.9267 172.154 14.688 172.76 13.6233C173.366 12.5587 173.173 11.7439 172.905 11.2475C172.308 10.1421 170.705 9.47878 169.095 9.08222C170.705 8.68524 172.308 8.0223 172.905 6.91697ZM163.87 1.65886C164 1.44177 164.259 1.15333 165 1.15333C165.742 1.15333 166 1.44177 166.131 1.65886C166.804 2.78149 165.925 5.64471 165 7.74943C164.075 5.64428 163.196 2.78149 163.87 1.65886ZM158.093 6.36301C157.972 6.1403 157.855 5.76883 158.226 5.11799C158.596 4.46716 158.972 4.38413 159.223 4.37851C159.231 4.37808 159.24 4.37808 159.249 4.37808C160.546 4.37808 162.535 6.56409 163.862 8.41626C161.601 8.17668 158.716 7.51677 158.093 6.36301ZM159.223 13.7864C158.972 13.7803 158.596 13.6977 158.226 13.0469C157.855 12.3961 157.972 12.0246 158.092 11.8019C158.715 10.6494 161.601 9.98906 163.862 9.74862C162.527 11.6129 160.518 13.8184 159.223 13.7864ZM166.13 16.5056C166 16.7227 165.741 17.0111 165 17.0111C164.258 17.0111 164 16.7227 163.869 16.5056C163.196 15.383 164.074 12.5197 165 10.415C165.925 12.5202 166.804 15.383 166.13 16.5056ZM171.907 11.8014C172.028 12.0242 172.145 12.3956 171.774 13.0465C171.404 13.6973 171.028 13.7803 170.777 13.7859C170.769 13.7864 170.76 13.7864 170.751 13.7864C169.454 13.7864 167.465 11.6004 166.138 9.74819C168.399 9.98777 171.284 10.6477 171.907 11.8014ZM171.908 6.36257C171.285 7.51504 168.399 8.17538 166.138 8.41582C167.464 6.56366 169.453 4.37808 170.751 4.37808C170.76 4.37808 170.769 4.37808 170.777 4.37808C171.028 4.3837 171.404 4.46673 171.774 5.11756C172.145 5.76839 172.028 6.13986 171.908 6.36257Z" fill="#21231E"/>
<path d="M177.029 12.0934C178.667 12.0934 180 10.7424 180 9.08229C180 7.42213 178.667 6.07117 177.029 6.07117C175.391 6.07117 174.059 7.42213 174.059 9.08229C174.059 10.7424 175.391 12.0934 177.029 12.0934ZM177.029 7.22407C178.04 7.22407 178.862 8.05739 178.862 9.08185C178.862 10.1063 178.04 10.9396 177.029 10.9396C176.018 10.9396 175.196 10.1059 175.196 9.08185C175.196 8.05782 176.018 7.22407 177.029 7.22407Z" fill="#21231E"/>
<path d="M152.97 12.0934C154.609 12.0934 155.941 10.7424 155.941 9.08229C155.941 7.42213 154.609 6.07117 152.97 6.07117C151.332 6.07117 150 7.42213 150 9.08229C150 10.7424 151.333 12.0934 152.97 12.0934ZM152.97 7.22407C153.981 7.22407 154.804 8.05739 154.804 9.08185C154.804 10.1063 153.981 10.9396 152.97 10.9396C151.96 10.9396 151.137 10.1059 151.137 9.08185C151.138 8.05782 151.96 7.22407 152.97 7.22407Z" fill="#21231E"/>
<path d="M202.905 6.91697C203.173 6.42095 203.366 5.60579 202.759 4.54111C202.153 3.47643 201.361 3.23772 200.802 3.22518C200.786 3.22475 200.77 3.22475 200.754 3.22475C199.524 3.22475 198.177 4.28813 197.047 5.48774C197.513 3.87558 197.748 2.13715 197.103 1.05992C196.812 0.57645 196.213 0 195 0C193.787 0 193.187 0.57645 192.897 1.05992C192.251 2.13715 192.486 3.87558 192.952 5.48774C191.822 4.28813 190.475 3.22475 189.245 3.22475C189.229 3.22475 189.213 3.22475 189.197 3.22518C188.639 3.23772 187.846 3.47643 187.24 4.54111C186.634 5.60579 186.826 6.42052 187.094 6.91697C187.692 8.0223 189.294 8.68567 190.904 9.08222C189.294 9.47878 187.692 10.1421 187.094 11.2475C186.826 11.7439 186.634 12.5587 187.24 13.6233C187.846 14.688 188.639 14.9267 189.197 14.9393C189.213 14.9397 189.229 14.9397 189.245 14.9397C190.475 14.9397 191.822 13.8763 192.952 12.6767C192.486 14.2889 192.251 16.0273 192.897 17.1045C193.187 17.588 193.787 18.1644 195 18.1644C196.213 18.1644 196.812 17.588 197.103 17.1045C197.748 16.0273 197.513 14.2889 197.047 12.6767C198.177 13.8763 199.524 14.9397 200.754 14.9397C200.77 14.9397 200.786 14.9397 200.802 14.9393C201.361 14.9267 202.153 14.688 202.759 13.6233C203.366 12.5587 203.173 11.7439 202.905 11.2475C202.308 10.1421 200.705 9.47878 199.095 9.08222C200.705 8.68524 202.308 8.0223 202.905 6.91697ZM193.87 1.65886C194 1.44177 194.258 1.15333 195 1.15333C195.742 1.15333 196 1.44177 196.131 1.65886C196.804 2.78149 195.926 5.64471 195 7.74943C194.075 5.64428 193.196 2.78149 193.87 1.65886ZM188.093 6.36301C187.972 6.1403 187.855 5.76883 188.225 5.11799C188.596 4.46716 188.972 4.38413 189.223 4.37851C189.231 4.37808 189.24 4.37808 189.249 4.37808C190.545 4.37808 192.535 6.56409 193.861 8.41626C191.601 8.17668 188.716 7.51677 188.093 6.36301ZM189.223 13.7864C188.972 13.7803 188.596 13.6977 188.225 13.0469C187.855 12.3961 187.972 12.0246 188.092 11.8019C188.715 10.6494 191.601 9.98906 193.862 9.74862C192.527 11.6129 190.518 13.8184 189.223 13.7864ZM196.13 16.5056C196 16.7227 195.741 17.0111 195 17.0111C194.258 17.0111 193.999 16.7227 193.869 16.5056C193.196 15.383 194.074 12.5197 195 10.415C195.925 12.5202 196.803 15.383 196.13 16.5056ZM201.907 11.8014C202.028 12.0242 202.145 12.3956 201.774 13.0465C201.404 13.6973 201.028 13.7803 200.777 13.7859C200.769 13.7864 200.76 13.7864 200.751 13.7864C199.454 13.7864 197.465 11.6004 196.138 9.74819C198.398 9.98777 201.284 10.6477 201.907 11.8014ZM201.908 6.36257C201.285 7.51504 198.399 8.17538 196.138 8.41582C197.464 6.56366 199.453 4.37808 200.751 4.37808C200.76 4.37808 200.769 4.37808 200.777 4.37808C201.028 4.3837 201.403 4.46673 201.774 5.11756C202.145 5.76839 202.028 6.13986 201.908 6.36257Z" fill="#21231E"/>
<path d="M207.029 12.0934C208.667 12.0934 210 10.7424 210 9.08229C210 7.42213 208.667 6.07117 207.029 6.07117C205.391 6.07117 204.058 7.42213 204.058 9.08229C204.058 10.7424 205.391 12.0934 207.029 12.0934ZM207.029 7.22407C208.04 7.22407 208.862 8.05739 208.862 9.08185C208.862 10.1063 208.04 10.9396 207.029 10.9396C206.018 10.9396 205.196 10.1059 205.196 9.08185C205.196 8.05782 206.018 7.22407 207.029 7.22407Z" fill="#21231E"/>
<path d="M182.97 12.0934C184.609 12.0934 185.941 10.7424 185.941 9.08229C185.941 7.42213 184.609 6.07117 182.97 6.07117C181.332 6.07117 180 7.42213 180 9.08229C180 10.7424 181.333 12.0934 182.97 12.0934ZM182.97 7.22407C183.981 7.22407 184.804 8.05739 184.804 9.08185C184.804 10.1063 183.981 10.9396 182.97 10.9396C181.96 10.9396 181.137 10.1059 181.137 9.08185C181.138 8.05782 181.96 7.22407 182.97 7.22407Z" fill="#21231E"/>
<path d="M232.905 6.91697C233.173 6.42095 233.366 5.60579 232.759 4.54111C232.153 3.47643 231.36 3.23772 230.802 3.22518C230.786 3.22475 230.77 3.22475 230.754 3.22475C229.524 3.22475 228.177 4.28813 227.047 5.48774C227.513 3.87558 227.748 2.13715 227.102 1.05992C226.813 0.57645 226.212 0 225 0C223.787 0 223.187 0.57645 222.897 1.05992C222.251 2.13715 222.486 3.87558 222.952 5.48774C221.823 4.28813 220.475 3.22475 219.245 3.22475C219.229 3.22475 219.213 3.22475 219.197 3.22518C218.639 3.23772 217.846 3.47643 217.24 4.54111C216.634 5.60579 216.826 6.42052 217.094 6.91697C217.692 8.0223 219.294 8.68567 220.905 9.08222C219.294 9.47878 217.692 10.1421 217.094 11.2475C216.826 11.7439 216.634 12.5587 217.24 13.6233C217.846 14.688 218.639 14.9267 219.197 14.9393C219.213 14.9397 219.229 14.9397 219.245 14.9397C220.476 14.9397 221.823 13.8763 222.952 12.6767C222.486 14.2889 222.251 16.0273 222.897 17.1045C223.187 17.588 223.787 18.1644 225 18.1644C226.212 18.1644 226.813 17.588 227.102 17.1045C227.748 16.0273 227.513 14.2889 227.047 12.6767C228.177 13.8763 229.524 14.9397 230.754 14.9397C230.77 14.9397 230.786 14.9397 230.802 14.9393C231.36 14.9267 232.153 14.688 232.759 13.6233C233.366 12.5587 233.173 11.7439 232.905 11.2475C232.307 10.1421 230.705 9.47878 229.095 9.08222C230.705 8.68524 232.307 8.0223 232.905 6.91697ZM223.869 1.65886C224 1.44177 224.258 1.15333 225 1.15333C225.741 1.15333 226 1.44177 226.13 1.65886C226.804 2.78149 225.925 5.64471 225 7.74943C224.074 5.64428 223.196 2.78149 223.869 1.65886ZM218.092 6.36301C217.972 6.1403 217.855 5.76883 218.225 5.11799C218.596 4.46716 218.972 4.38413 219.222 4.37851C219.231 4.37808 219.24 4.37808 219.248 4.37808C220.545 4.37808 222.535 6.56409 223.861 8.41626C221.601 8.17668 218.716 7.51677 218.092 6.36301ZM219.222 13.7864C218.972 13.7803 218.596 13.6977 218.225 13.0469C217.855 12.3961 217.972 12.0246 218.092 11.8019C218.715 10.6494 221.6 9.98906 223.862 9.74862C222.527 11.6129 220.518 13.8184 219.222 13.7864ZM226.13 16.5056C226 16.7227 225.741 17.0111 224.999 17.0111C224.258 17.0111 223.999 16.7227 223.869 16.5056C223.196 15.383 224.074 12.5197 224.999 10.415C225.925 12.5202 226.803 15.383 226.13 16.5056ZM231.907 11.8014C232.028 12.0242 232.145 12.3956 231.774 13.0465C231.404 13.6973 231.027 13.7803 230.777 13.7859C230.768 13.7864 230.76 13.7864 230.751 13.7864C229.454 13.7864 227.465 11.6004 226.138 9.74819C228.399 9.98777 231.283 10.6477 231.907 11.8014ZM231.907 6.36257C231.285 7.51504 228.399 8.17538 226.138 8.41582C227.464 6.56366 229.452 4.37808 230.751 4.37808C230.76 4.37808 230.768 4.37808 230.777 4.37808C231.027 4.3837 231.403 4.46673 231.774 5.11756C232.145 5.76839 232.028 6.13986 231.907 6.36257Z" fill="#21231E"/>
<path d="M237.029 12.0934C238.668 12.0934 240 10.7424 240 9.08229C240 7.42213 238.668 6.07117 237.029 6.07117C235.391 6.07117 234.059 7.42213 234.059 9.08229C234.059 10.7424 235.391 12.0934 237.029 12.0934ZM237.029 7.22407C238.04 7.22407 238.863 8.05739 238.863 9.08185C238.863 10.1063 238.04 10.9396 237.029 10.9396C236.019 10.9396 235.196 10.1059 235.196 9.08185C235.196 8.05782 236.018 7.22407 237.029 7.22407Z" fill="#21231E"/>
<path d="M212.97 12.0934C214.609 12.0934 215.941 10.7424 215.941 9.08229C215.941 7.42213 214.609 6.07117 212.97 6.07117C211.332 6.07117 210 7.42213 210 9.08229C210 10.7424 211.333 12.0934 212.97 12.0934ZM212.97 7.22407C213.981 7.22407 214.804 8.05739 214.804 9.08185C214.804 10.1063 213.981 10.9396 212.97 10.9396C211.96 10.9396 211.137 10.1059 211.137 9.08185C211.138 8.05782 211.96 7.22407 212.97 7.22407Z" fill="#21231E"/>
<path d="M262.905 6.91697C263.173 6.42095 263.366 5.60579 262.76 4.54111C262.153 3.47643 261.361 3.23772 260.802 3.22518C260.786 3.22475 260.77 3.22475 260.754 3.22475C259.524 3.22475 258.177 4.28813 257.047 5.48774C257.514 3.87558 257.748 2.13715 257.103 1.05992C256.813 0.57645 256.213 0 255 0C253.787 0 253.187 0.57645 252.897 1.05992C252.252 2.13715 252.486 3.87558 252.953 5.48774C251.823 4.28813 250.475 3.22475 249.246 3.22475C249.23 3.22475 249.214 3.22475 249.198 3.22518C248.639 3.23772 247.847 3.47643 247.24 4.54111C246.634 5.60579 246.827 6.42052 247.095 6.91697C247.692 8.0223 249.294 8.68567 250.905 9.08222C249.294 9.47878 247.692 10.1421 247.095 11.2475C246.827 11.7439 246.634 12.5587 247.24 13.6233C247.847 14.688 248.639 14.9267 249.198 14.9393C249.214 14.9397 249.23 14.9397 249.246 14.9397C250.476 14.9397 251.823 13.8763 252.953 12.6767C252.486 14.2889 252.252 16.0273 252.897 17.1045C253.187 17.588 253.787 18.1644 255 18.1644C256.212 18.1644 256.813 17.588 257.103 17.1045C257.748 16.0273 257.514 14.2889 257.047 12.6767C258.177 13.8763 259.524 14.9397 260.754 14.9397C260.77 14.9397 260.786 14.9397 260.802 14.9393C261.361 14.9267 262.153 14.688 262.76 13.6233C263.366 12.5587 263.173 11.7439 262.905 11.2475C262.308 10.1421 260.705 9.47878 259.095 9.08222C260.705 8.68524 262.308 8.0223 262.905 6.91697ZM253.87 1.65886C254 1.44177 254.259 1.15333 255 1.15333C255.742 1.15333 256 1.44177 256.131 1.65886C256.804 2.78149 255.926 5.64471 255 7.74943C254.075 5.64428 253.196 2.78149 253.87 1.65886ZM248.093 6.36301C247.972 6.1403 247.855 5.76883 248.225 5.11799C248.596 4.46716 248.972 4.38413 249.223 4.37851C249.231 4.37808 249.24 4.37808 249.249 4.37808C250.546 4.37808 252.535 6.56409 253.862 8.41626C251.601 8.17668 248.716 7.51677 248.093 6.36301ZM249.223 13.7864C248.972 13.7803 248.597 13.6977 248.225 13.0469C247.855 12.3961 247.972 12.0246 248.092 11.8019C248.715 10.6494 251.601 9.98906 253.862 9.74862C252.527 11.6129 250.518 13.8184 249.223 13.7864ZM256.13 16.5056C256 16.7227 255.741 17.0111 255 17.0111C254.259 17.0111 253.999 16.7227 253.869 16.5056C253.196 15.383 254.074 12.5197 255 10.415C255.925 12.5202 256.803 15.383 256.13 16.5056ZM261.907 11.8014C262.028 12.0242 262.145 12.3956 261.774 13.0465C261.404 13.6973 261.028 13.7803 260.777 13.7859C260.769 13.7864 260.76 13.7864 260.751 13.7864C259.454 13.7864 257.465 11.6004 256.138 9.74819C258.398 9.98777 261.284 10.6477 261.907 11.8014ZM261.908 6.36257C261.285 7.51504 258.399 8.17538 256.138 8.41582C257.464 6.56366 259.453 4.37808 260.751 4.37808C260.76 4.37808 260.769 4.37808 260.777 4.37808C261.028 4.3837 261.403 4.46673 261.774 5.11756C262.145 5.76839 262.028 6.13986 261.908 6.36257Z" fill="#21231E"/>
<path d="M267.029 12.0934C268.667 12.0934 270 10.7424 270 9.08229C270 7.42213 268.667 6.07117 267.029 6.07117C265.391 6.07117 264.058 7.42213 264.058 9.08229C264.058 10.7424 265.392 12.0934 267.029 12.0934ZM267.029 7.22407C268.04 7.22407 268.862 8.05739 268.862 9.08185C268.862 10.1063 268.04 10.9396 267.029 10.9396C266.019 10.9396 265.196 10.1059 265.196 9.08185C265.197 8.05782 266.019 7.22407 267.029 7.22407Z" fill="#21231E"/>
<path d="M242.97 12.0934C244.609 12.0934 245.941 10.7424 245.941 9.08229C245.941 7.42213 244.609 6.07117 242.97 6.07117C241.332 6.07117 240 7.42213 240 9.08229C240 10.7424 241.333 12.0934 242.97 12.0934ZM242.97 7.22407C243.981 7.22407 244.804 8.05739 244.804 9.08185C244.804 10.1063 243.981 10.9396 242.97 10.9396C241.96 10.9396 241.137 10.1059 241.137 9.08185C241.138 8.05782 241.96 7.22407 242.97 7.22407Z" fill="#21231E"/>
<path d="M292.905 6.91697C293.174 6.42095 293.366 5.60579 292.76 4.54111C292.153 3.47643 291.361 3.23772 290.802 3.22518C290.786 3.22475 290.77 3.22475 290.754 3.22475C289.524 3.22475 288.177 4.28813 287.048 5.48774C287.514 3.87558 287.749 2.13715 287.103 1.05992C286.813 0.57645 286.213 0 285 0C283.787 0 283.187 0.57645 282.897 1.05992C282.251 2.13715 282.486 3.87558 282.952 5.48774C281.823 4.28813 280.476 3.22475 279.245 3.22475C279.229 3.22475 279.213 3.22475 279.197 3.22518C278.639 3.23772 277.846 3.47643 277.24 4.54111C276.634 5.60579 276.826 6.42052 277.094 6.91697C277.692 8.0223 279.294 8.68567 280.905 9.08222C279.294 9.47878 277.692 10.1421 277.094 11.2475C276.826 11.7439 276.634 12.5587 277.24 13.6233C277.846 14.688 278.639 14.9267 279.197 14.9393C279.213 14.9397 279.229 14.9397 279.245 14.9397C280.476 14.9397 281.823 13.8763 282.952 12.6767C282.486 14.2889 282.251 16.0273 282.897 17.1045C283.187 17.588 283.787 18.1644 285 18.1644C286.213 18.1644 286.813 17.588 287.103 17.1045C287.749 16.0273 287.514 14.2889 287.048 12.6767C288.177 13.8763 289.524 14.9397 290.754 14.9397C290.77 14.9397 290.786 14.9397 290.802 14.9393C291.361 14.9267 292.153 14.688 292.76 13.6233C293.366 12.5587 293.174 11.7439 292.905 11.2475C292.308 10.1421 290.706 9.47878 289.095 9.08222C290.706 8.68524 292.308 8.0223 292.905 6.91697ZM283.87 1.65886C284 1.44177 284.259 1.15333 285 1.15333C285.742 1.15333 286.001 1.44177 286.131 1.65886C286.804 2.78149 285.926 5.64471 285 7.74943C284.075 5.64428 283.197 2.78149 283.87 1.65886ZM278.093 6.36301C277.972 6.1403 277.855 5.76883 278.226 5.11799C278.596 4.46716 278.972 4.38413 279.223 4.37851C279.232 4.37808 279.24 4.37808 279.249 4.37808C280.546 4.37808 282.535 6.56409 283.862 8.41626C281.601 8.17668 278.716 7.51677 278.093 6.36301ZM279.223 13.7864C278.972 13.7803 278.597 13.6977 278.226 13.0469C277.855 12.3961 277.972 12.0246 278.092 11.8019C278.715 10.6494 281.601 9.98906 283.862 9.74862C282.527 11.6129 280.518 13.8184 279.223 13.7864ZM286.13 16.5056C286 16.7227 285.742 17.0111 285 17.0111C284.258 17.0111 284 16.7227 283.87 16.5056C283.196 15.383 284.074 12.5197 285 10.415C285.925 12.5202 286.804 15.383 286.13 16.5056ZM291.907 11.8014C292.028 12.0242 292.145 12.3956 291.775 13.0465C291.404 13.6973 291.028 13.7803 290.777 13.7859C290.769 13.7864 290.76 13.7864 290.751 13.7864C289.455 13.7864 287.465 11.6004 286.139 9.74819C288.399 9.98777 291.284 10.6477 291.907 11.8014ZM291.908 6.36257C291.285 7.51504 288.399 8.17538 286.138 8.41582C287.464 6.56366 289.453 4.37808 290.751 4.37808C290.76 4.37808 290.769 4.37808 290.777 4.37808C291.028 4.3837 291.404 4.46673 291.775 5.11756C292.145 5.76839 292.028 6.13986 291.908 6.36257Z" fill="#21231E"/>
<path d="M297.029 12.0934C298.667 12.0934 300 10.7424 300 9.08229C300 7.42213 298.667 6.07117 297.029 6.07117C295.391 6.07117 294.058 7.42213 294.058 9.08229C294.058 10.7424 295.392 12.0934 297.029 12.0934ZM297.029 7.22407C298.04 7.22407 298.862 8.05739 298.862 9.08185C298.862 10.1063 298.04 10.9396 297.029 10.9396C296.019 10.9396 295.196 10.1059 295.196 9.08185C295.197 8.05782 296.019 7.22407 297.029 7.22407Z" fill="#21231E"/>
<path d="M272.97 12.0934C274.609 12.0934 275.941 10.7424 275.941 9.08229C275.941 7.42213 274.609 6.07117 272.97 6.07117C271.332 6.07117 270 7.42213 270 9.08229C270 10.7424 271.333 12.0934 272.97 12.0934ZM272.97 7.22407C273.981 7.22407 274.804 8.05739 274.804 9.08185C274.804 10.1063 273.981 10.9396 272.97 10.9396C271.96 10.9396 271.137 10.1059 271.137 9.08185C271.138 8.05782 271.96 7.22407 272.97 7.22407Z" fill="#21231E"/>
</svg>
